####
#
# OBJ File Generated by Meshlab
#
####
# Object heron_collision.obj
#
# Vertices: 40
# Faces: 60
#
####
vn 1.570796 1.570795 -1.570796
v 0.679410 -0.257285 -0.210604
vn 1.570796 -1.570794 -1.570794
v 0.679410 -0.496526 -0.210604
vn -1.570796 -1.570795 -1.570797
v -0.619685 -0.496525 -0.210604
vn -1.570796 1.570799 -1.570799
v -0.619684 -0.257285 -0.210604
vn 1.570797 1.570790 1.570792
v 0.679410 -0.257285 0.001731
vn -1.570797 1.570797 1.570796
v -0.619685 -0.257285 0.001731
vn -1.570796 -1.570794 1.570794
v -0.619685 -0.496525 0.001731
vn 1.570796 -1.570800 1.570799
v 0.679410 -0.496526 0.001731
vn 1.570796 1.570795 -1.570796
v 0.679410 0.497865 -0.210604
vn 1.570796 -1.570794 -1.570794
v 0.679410 0.258624 -0.210604
vn -1.570796 -1.570795 -1.570797
v -0.619685 0.258624 -0.210604
vn -1.570796 1.570799 -1.570799
v -0.619684 0.497865 -0.210604
vn 1.570797 1.570790 1.570792
v 0.679410 0.497865 0.001731
vn -1.570797 1.570797 1.570796
v -0.619685 0.497865 0.001731
vn -1.570796 -1.570794 1.570794
v -0.619685 0.258624 0.001731
vn 1.570796 -1.570800 1.570799
v 0.679410 0.258624 0.001731
vn 1.570794 1.570797 -1.570795
v 0.364556 0.272534 0.008778
vn 1.570798 -1.570793 -1.570793
v 0.364556 -0.269891 0.008778
vn -1.570796 -1.570798 -1.570798
v -0.356616 -0.269891 0.008778
vn -1.570794 1.570799 -1.570796
v -0.356616 0.272535 0.008778
vn 1.570799 1.570794 1.570797
v 0.364557 0.272534 0.078632
vn -1.570798 1.570795 1.570796
v -0.356616 0.272534 0.078632
vn -1.570797 -1.570794 1.570794
v -0.356616 -0.269891 0.078632
vn 1.570794 -1.570800 1.570799
v 0.364556 -0.269891 0.078632
vn 1.570731 1.570795 1.570860
v 0.038887 -0.100529 0.551672
vn 1.570730 -1.570794 1.570860
v 0.038887 -0.153930 0.551672
vn 1.570859 -1.570794 -1.570733
v 0.038906 -0.153930 0.080434
vn 1.570864 1.570801 -1.570733
v 0.038906 -0.100529 0.080434
vn -1.570854 1.570788 1.570733
v -0.030966 -0.100529 0.551669
vn -1.570733 1.570798 -1.570860
v -0.030947 -0.100529 0.080431
vn -1.570729 -1.570792 -1.570860
v -0.030947 -0.153930 0.080431
vn -1.570864 -1.570803 1.570733
v -0.030966 -0.153930 0.551669
vn 1.570731 1.570795 1.570860
v 0.038887 0.168175 0.551672
vn 1.570730 -1.570794 1.570860
v 0.038887 0.114774 0.551672
vn 1.570860 -1.570794 -1.570733
v 0.038906 0.114774 0.080434
vn 1.570863 1.570800 -1.570733
v 0.038906 0.168175 0.080434
vn -1.570854 1.570788 1.570733
v -0.030966 0.168175 0.551669
vn -1.570733 1.570798 -1.570860
v -0.030947 0.168175 0.080431
vn -1.570730 -1.570793 -1.570860
v -0.030947 0.114774 0.080431
vn -1.570864 -1.570803 1.570732
v -0.030966 0.114774 0.551669
# 40 vertices, 0 vertices normals

f 1//1 2//2 3//3
f 3//3 4//4 1//1
f 5//5 6//6 7//7
f 7//7 8//8 5//5
f 1//1 5//5 8//8
f 8//8 2//2 1//1
f 2//2 8//8 7//7
f 7//7 3//3 2//2
f 3//3 7//7 6//6
f 6//6 4//4 3//3
f 5//5 1//1 4//4
f 4//4 6//6 5//5
f 9//9 10//10 11//11
f 11//11 12//12 9//9
f 13//13 14//14 15//15
f 15//15 16//16 13//13
f 9//9 13//13 16//16
f 16//16 10//10 9//9
f 10//10 16//16 15//15
f 15//15 11//11 10//10
f 11//11 15//15 14//14
f 14//14 12//12 11//11
f 13//13 9//9 12//12
f 12//12 14//14 13//13
f 17//17 18//18 19//19
f 19//19 20//20 17//17
f 21//21 22//22 23//23
f 23//23 24//24 21//21
f 17//17 21//21 24//24
f 24//24 18//18 17//17
f 18//18 24//24 23//23
f 23//23 19//19 18//18
f 19//19 23//23 22//22
f 22//22 20//20 19//19
f 21//21 17//17 20//20
f 20//20 22//22 21//21
f 25//25 26//26 27//27
f 27//27 28//28 25//25
f 29//29 30//30 31//31
f 31//31 32//32 29//29
f 25//25 29//29 32//32
f 32//32 26//26 25//25
f 26//26 32//32 31//31
f 31//31 27//27 26//26
f 27//27 31//31 30//30
f 30//30 28//28 27//27
f 29//29 25//25 28//28
f 28//28 30//30 29//29
f 33//33 34//34 35//35
f 35//35 36//36 33//33
f 37//37 38//38 39//39
f 39//39 40//40 37//37
f 33//33 37//37 40//40
f 40//40 34//34 33//33
f 34//34 40//40 39//39
f 39//39 35//35 34//34
f 35//35 39//39 38//38
f 38//38 36//36 35//35
f 37//37 33//33 36//36
f 36//36 38//38 37//37
# 60 faces, 0 coords texture

# End of File
